Coordinates
version=1
nRows=14
nColumns=24
inDegrees=yes

Units are S.I. units (second, meters, Newtons, ...)
Angles are in degrees.

endheader
time	pelvis_tilt	pelvis_list	pelvis_rotation	pelvis_tx	pelvis_ty	pelvis_tz	hip_flexion_r	hip_adduction_r	hip_rotation_r	knee_angle_r	ankle_angle_r	subtalar_angle_r	mtp_angle_r	hip_flexion_l	hip_adduction_l	hip_rotation_l	knee_angle_l	ankle_angle_l	subtalar_angle_l	mtp_angle_l	lumbar_extension	lumbar_bending	lumbar_rotation
      4.49000000	      4.76680871	      7.60721577	      6.90036190	     -0.16806341	      0.87522389	     -0.40572970	     19.74318650	     -6.33539423	     -2.89886142	     -6.55454778	      2.93408383	     -3.76659376	      0.00000000	    -21.13624293	      8.49546468	      9.37705605	    -15.41874886	     19.30761337	      8.25674702	      0.00000000	    -23.46014457	     -3.68923616	     -7.92808664
      4.50000000	      4.92865675	      7.11001246	      6.51778056	     -0.15351080	      0.87475211	     -0.40446737	     19.89341567	     -5.46377634	     -2.11067751	     -8.55335929	      2.11223638	     -5.01803832	      0.00000000	    -20.97176859	      7.96875339	      8.31137368	    -17.57389427	     18.43895274	      8.97888233	      0.00000000	    -23.34540552	     -3.19580816	     -7.58890707
      4.51000000	      5.11567259	      6.61779581	      6.17798154	     -0.13896937	      0.87466157	     -0.40327926	     19.99785644	     -4.59483659	     -1.04955592	    -10.61239136	      1.31345306	     -6.21501658	      0.00000000	    -20.67339260	      7.47086638	      7.45177004	    -19.96020662	     16.97029189	      9.27190002	      0.00000000	    -23.26950135	     -2.67326854	     -7.31624548
      4.52000000	      5.36529819	      6.12521642	      5.87158108	     -0.12454581	      0.87497933	     -0.40221919	     20.11037626	     -3.76240143	     -0.36518797	    -12.85131951	      1.09882595	     -6.56746070	      0.00000000	    -20.23225484	      7.00438268	      6.73590754	    -22.62313550	     14.88712105	      9.07265627	      0.00000000	    -23.29010606	     -2.09970713	     -7.10897096
      4.53000000	      5.60885123	      5.66030246	      5.63991882	     -0.11028338	      0.87558222	     -0.40128317	     20.20226386	     -2.98612540	      0.22331600	    -15.09786774	      1.34125013	     -6.68970284	      0.00000000	    -19.50339022	      6.55496209	      5.99185073	    -25.65943568	     12.20845245	      8.82017925	      0.00000000	    -23.32607179	     -1.52461211	     -6.99199842
      4.54000000	      5.75534088	      5.27973371	      5.45638392	     -0.09626124	      0.87626602	     -0.40052255	     20.42834693	     -2.38068430	      0.31573872	    -17.42587442	      2.33555839	     -6.15380672	      0.00000000	    -18.41302877	      6.22463344	      5.32877539	    -29.00570539	      8.91813493	      8.23155776	      0.00000000	    -23.28148203	     -1.02511989	     -6.96282402
      4.55000000	      5.92001634	      4.91491795	      5.30473118	     -0.08249768	      0.87711571	     -0.39983555	     20.52598162	     -1.82514169	      0.25466593	    -19.58235720	      3.71956490	     -5.45457498	      0.00000000	    -17.08505275	      5.88414503	      4.57602054	    -32.61400102	      5.26947209	      7.49339456	      0.00000000	    -23.29358464	     -0.53386359	     -6.98803629
      4.56000000	      6.11328116	      4.50386814	      5.21350652	     -0.06901098	      0.87811235	     -0.39926081	     20.43364496	     -1.28364468	     -0.10026951	    -21.45061426	      5.38875917	     -4.67056343	      0.00000000	    -15.55736141	      5.44761151	      3.77746816	    -36.42308655	      1.59637783	      6.72272582	      0.00000000	    -23.37755380	      0.03195850	     -6.98301378
      4.57000000	      6.21976875	      4.03418219	      5.22175392	     -0.05586403	      0.87910161	     -0.39878015	     20.19515075	     -0.70594043	     -0.42410166	    -22.88229832	      6.97727546	     -4.16525306	      0.00000000	    -13.72753621	      4.90083355	      3.01322013	    -40.39167019	     -1.71865295	      5.88116174	      0.00000000	    -23.40389394	      0.66681446	     -7.05518843
      4.58000000	      6.28925173	      3.46459511	      5.34454493	     -0.04305485	      0.88015962	     -0.39842639	     19.76498585	     -0.07889979	     -0.94428078	    -23.85925298	      8.49605090	     -3.70961870	      0.00000000	    -11.69993215	      4.19701505	      2.34697212	    -44.42417331	     -4.30943940	      5.04384604	      0.00000000	    -23.43140241	      1.42644986	     -7.10538148
      4.59000000	      6.30116443	      2.80139940	      5.57503139	     -0.03058153	      0.88128093	     -0.39818986	     19.16809141	      0.61478009	     -1.55254674	    -24.37100773	      9.82303737	     -3.36209158	      0.00000000	     -9.49744915	      3.37283445	      1.84468412	    -48.42835966	     -5.97852505	      4.14167494	      0.00000000	    -23.42837865	      2.29912783	     -7.14605820
      4.60000000	      6.25250995	      2.06881639	      5.91579445	     -0.01842029	      0.88249096	     -0.39808063	     18.43020910	      1.36041275	     -2.21874777	    -24.44548167	     10.90016866	     -3.18738315	      0.00000000	     -7.16067506	      2.49143403	      1.57667503	    -52.30025957	     -6.70203515	      3.07260263	      0.00000000	    -23.38603881	      3.25264313	     -7.15606644
      4.61000000	      6.14168419	      1.33056992	      6.30939823	     -0.00654123	      0.88380840	     -0.39805304	     17.60101183	      2.11048180	     -2.88269012	    -24.16751584	     11.78824149	     -3.01760286	      0.00000000	     -4.73104758	      1.65604278	      1.50008863	    -55.92681365	     -6.62538430	      1.75113715	      0.00000000	    -23.29735230	      4.20252929	     -7.15277767
      4.62000000	      5.98904789	      0.64118396	      6.70313986	      0.00509897	      0.88527471	     -0.39805420	     16.70367457	      2.82552552	     -3.49147931	    -23.62741920	     12.48753657	     -2.87961469	      0.00000000	     -2.27227342	      0.95111972	      1.56832180	    -59.20338694	     -5.97709222	      0.13821817	      0.00000000	    -23.18495181	      5.07383777	     -7.09928878
